<svg xmlns="http://www.w3.org/2000/svg" fill="none" viewBox="0 0 24 24" id="Dark-Mode--Streamline-Outlined-Material" height="24" width="24">
  <desc>
    Dark Mode Streamline Icon: https://streamlinehq.com
  </desc>
  <path fill="#000000" d="M12 21c-2.5 0 -4.625 -0.875 -6.375 -2.625S3 14.5 3 12s0.875 -4.625 2.625 -6.375S9.5 3 12 3c0.13335 0 0.275 0.004165 0.425 0.0125 0.15 0.008335 0.34165 0.020835 0.575 0.0375 -0.6 0.533335 -1.06665 1.191665 -1.4 1.975 -0.33335 0.78335 -0.5 1.60835 -0.5 2.475 0 1.5 0.525 2.775 1.575 3.825 1.05 1.05 2.325 1.575 3.825 1.575 0.86665 0 1.69165 -0.15415 2.475 -0.4625S20.41665 11.7 20.95 11.15c0.01665 0.2 0.02915 0.3625 0.0375 0.4875S21 11.88335 21 12c0 2.5 -0.875 4.625 -2.625 6.375S14.5 21 12 21Zm0 -1.5c1.81665 0 3.4 -0.5625 4.75 -1.6875s2.19165 -2.44585 2.525 -3.9625c-0.41665 0.18335 -0.8639 0.32085 -1.34175 0.4125 -0.47765 0.09165 -0.9554 0.1375 -1.43325 0.1375 -1.9115 0 -3.53935 -0.67215 -4.8835 -2.0165C10.27215 11.03935 9.6 9.4115 9.6 7.5c0 -0.4 0.04165 -0.82915 0.125 -1.2875 0.08335 -0.45835 0.23335 -0.97915 0.45 -1.5625 -1.63335 0.45 -2.9875 1.3625 -4.0625 2.7375C5.0375 8.7625 4.5 10.3 4.5 12c0 2.08335 0.72915 3.85415 2.1875 5.3125C8.14585 18.77085 9.91665 19.5 12 19.5Z" stroke-width="0.5"></path>
</svg>